<svg xmlns="http://www.w3.org/2000/svg" width="1em" height="1em" viewBox="0 0 24 24"><path fill="currentColor" d="M12 10.8c-1.087-2.114-4.046-6.053-6.798-7.995C2.566.944 1.561 1.266.902 1.565.139 1.908 0 3.08 0 3.768c0 .69.378 5.65.624 6.479.785 2.627 3.6 3.497 6.168 3.198-3.864.91-7.064 2.378-2.688 7.576C8.854 25.18 10.548 24 12 24c1.453 0 3.141 1.18 5.964-3.014 4.376-5.198 1.176-6.666-2.688-7.576 2.568.299 5.383-.571 6.168-3.198C23.622 9.418 24 4.458 24 3.768c0-.688-.14-1.86-.902-2.203-.66-.299-1.664-.621-4.3 1.24C16.046 4.747 13.087 8.686 12 10.8z"/></svg>